inDegrees=yes
name=ik_S54_A09_T01
DataType=double
version=3
OpenSimVersion=4.3-2021-08-27-4bc7ad9
endheader
time	pelvis_tilt	pelvis_list	pelvis_rotation	pelvis_tx	pelvis_ty	pelvis_tz	hip_flexion_r	hip_adduction_r	hip_rotation_r	knee_angle_r	knee_angle_r_beta	ankle_angle_r	subtalar_angle_r	mtp_angle_r	hip_flexion_l	hip_adduction_l	hip_rotation_l	knee_angle_l	knee_angle_l_beta	ankle_angle_l	subtalar_angle_l	mtp_angle_l	lumbar_extension	lumbar_bending	lumbar_rotation	arm_flex_r	arm_add_r	arm_rot_r	elbow_flex_r	pro_sup_r	wrist_flex_r	wrist_dev_r	arm_flex_l	arm_add_l	arm_rot_l	elbow_flex_l	pro_sup_l	wrist_flex_l	wrist_dev_l
0	0	0	0	0	0.9399999999999999	0	0	0	0	0	0	0	0	0	0	0	0	0	0	0	0	0	0	0	0	0	0	0	0	89.99999999963507	0	0	0	0	0	0	89.99999999869995	0	0
0.02	-7.12637759800118	-0.9367858136908014	22.01437283086321	0	0.9399999999999999	0	3.554278845310717	-1.663020274354584	-1.197059440819289	5.489734676948513	0.09581394517365879	0	0	0	3.554278845310717	-1.663020274354584	-1.197059440819289	5.489734676948513	0.09581394517365879	0	0	0	-3.327682803996179	-3.11964628757027	3.220877527280131	37.02283752860532	0.4271006652234916	-5.664049008041619	41.50967105827413	142.3747658366319	0	0	27.2177324630998	-15.70929987987551	-5.202168388718435	46.84513611598939	131.5239963302637	0	0
0.04	-6.07332034162748	-1.252772022795549	21.31703479748546	0	0.9399999999999999	0	41.22094549715367	-10.79659483672187	-10.28951204402079	56.07151657285945	0.9786325807829643	0	0	0	41.22094549715367	-10.79659483672187	-10.28951204402079	56.07151657285945	0.9786325807829643	0	0	0	-4.152603511671473	-2.460006286749535	3.979995977534328	37.05080528437393	0.4224422768259306	-5.69110027162488	41.45514866906149	142.3543404803459	0	0	27.2086269915256	-15.69590281303504	-5.262763935445743	46.88383983697255	131.5586362280407	0	0
0.06	-6.070077544502845	-1.244175154059674	21.30645384832036	0	0.9399999999999999	0	41.21942980433375	-10.79725472207102	-10.28971566570835	56.07182042584454	0.9786378840179961	0	0	0	41.21942980433375	-10.79725472207102	-10.28971566570835	56.07182042584454	0.9786378840179961	0	0	0	-4.145808226837544	-2.45451002588914	3.984578347109931	37.04886622466734	0.423649362962992	-5.755843517457483	41.43686206210758	142.3946823743788	0	0	27.21136504721587	-15.69605042706209	-5.306584342298226	46.86017445579908	131.5912451568895	0	0
0.08	-6.065969531531904	-1.240048601847952	21.30886828575649	0	0.9399999999999999	0	41.22380824071702	-10.79359841535319	-10.28890979344995	56.07101133387441	0.978623762699166	0	0	0	41.22380824071702	-10.79359841535319	-10.28890979344995	56.07101133387441	0.978623762699166	0	0	0	-4.141931341018362	-2.449817795899557	3.98668284766533	37.04521238529884	0.4119381965168861	-5.742015373590574	41.47276338772275	142.3341593776642	0	0	27.20569772480922	-15.70656737695311	-5.293123610262978	46.88407903237129	131.558902585665	0	0
0.1	-6.066505177142179	-1.229242551483161	21.29054025060793	0	0.9399999999999999	0	41.22111728838427	-10.79698640034491	-10.28957060851655	56.07143804779155	0.9786312102619842	0	0	0	41.22111728838427	-10.79698640034491	-10.28957060851655	56.07143804779155	0.9786312102619842	0	0	0	-4.137670234750995	-2.441399193560193	3.99240238044514	37.04511935685314	0.4225529071912947	-5.814028457134232	41.4303476677417	142.428382442461	0	0	27.2098378482013	-15.67598781526721	-5.380342129005307	46.83321360133728	131.6324466219287	0	0
0.12	-6.070146037197586	-1.226597833698962	21.28614227051273	0	0.9399999999999999	0	41.22495784441767	-10.79412890604585	-10.28891287475522	56.07070927255112	0.9786184907345317	0	0	0	41.22495784441767	-10.79412890604585	-10.28891287475522	56.07070927255112	0.9786184907345317	0	0	0	-4.141497675910175	-2.435263293730374	3.99141999410196	37.05237276220574	0.4187564298942775	-5.794781152554203	41.4538483832895	142.40514246594	0	0	27.20767207130668	-15.66469479213204	-5.364888520692937	46.84149759141695	131.6334137229434	0	0
0.14	-6.08376316559866	-1.220788301243259	21.27701871844029	0	0.9399999999999999	0	41.22755977910689	-10.79208135783437	-10.28845407523365	56.07021957241779	0.9786099438548576	0	0	0	41.22755977910689	-10.79208135783437	-10.28845407523365	56.07021957241779	0.9786099438548576	0	0	0	-4.152999314791489	-2.423572786219705	3.994681504652486	37.06208277960712	0.4128241528538485	-5.851571301441611	41.46692586855729	142.4068480972071	0	5.783316580230212e-35	27.2129151891556	-15.64409177416633	-5.387141181874314	46.83895528523221	131.6356539001888	0	5.783316580230212e-35
